<svg xmlns="http://www.w3.org/2000/svg" style="display:none">
  <symbol id="dashboard" viewBox="0 0 24 24">
    <path d="M3 13h8V3H3v10zm0 8h8v-6H3v6zm10 0h8V11h-8v10zm0-18v6h8V3h-8z"/>
  </symbol>
  <symbol id="bangla" viewBox="0 0 24 24">
    <path d="M12 2L2 7l10 5 10-5-10-5zm0 7L2 12l10 5 10-5-10-5zM2 17l10 5 10-5"/>
  </symbol>
  <symbol id="english" viewBox="0 0 24 24">
    <path d="M12 2L2 7l10 5 10-5-10-5zm0 7L2 12l10 5 10-5-10-5zM2 17l10 5 10-5"/>
  </symbol>
  <symbol id="math" viewBox="0 0 24 24">
    <path d="M5 3v18h14V3H5zm12 16H7V5h10v14z"/>
  </symbol>
  <symbol id="arabic" viewBox="0 0 24 24">
    <path d="M12 2L2 7l10 5 10-5-10-5zm0 7L2 12l10 5 10-5-10-5zM2 17l10 5 10-5"/>
  </symbol>
  <symbol id="categories" viewBox="0 0 24 24">
    <path d="M4 4h16v2H4V4zm0 6h16v2H4v-2zm0 6h16v2H4v-2z"/>
  </symbol>
  <symbol id="settings" viewBox="0 0 24 24">
    <path d="M12 8a4 4 0 100 8 4 4 0 000-8zm8.94 3.28c.04-.31.06-.63.06-.96s-.02-.65-.06-.96l2.03-1.58a.5.5 0 00.12-.64l-1.92-3.32a.5.5 0 00-.6-.22l-2.39.96c-.5-.38-1.04-.7-1.64-.94l-.36-2.54a.5.5 0 00-.5-.42h-3.84a.5.5 0 00-.5.42l-.36 2.54c-.6.24-1.14.56-1.64.94l-2.39-.96a.5.5 0 00-.6.22l-1.92 3.32a.5.5 0 00.12.64l2.03 1.58c-.04.31-.06.63-.06.96s.02.65.06.96l-2.03 1.58a.5.5 0 00-.12.64l1.92 3.32c.14.24.44.34.68.22l2.39-.96c.5.38 1.04.7 1.64.94l.36 2.54c.04.28.28.42.5.42h3.84c.28 0 .5-.14.5-.42l.36-2.54c.6-.24 1.14-.56 1.64-.94l2.39.96c.24.12.54.02.68-.22l1.92-3.32a.5.5 0 00-.12-.64l-2.03-1.58z"/>
  </symbol>
</svg>
